<svg width="1440" height="1440" viewBox="0 0 1440 1440" fill="none" xmlns="http://www.w3.org/2000/svg">
<rect width="1440" height="1440" rx="200" fill="#F5EFE6"/>
<path d="M330.193 222.759C335.812 219.934 342.546 220.548 347.6 224.339L473.833 319.017C501.264 310.988 592.419 287.514 719.999 287.514C847.579 287.514 938.734 310.988 966.165 319.019L1092.4 224.341C1097.44 220.55 1104.15 219.934 1109.8 222.761C1115.44 225.586 1119 231.339 1119 237.639C1119 373.016 1085.42 441.71 1083.99 444.57C1084.07 444.57 1056.08 578.973 1067.05 686.64C1074.97 685.582 1082.63 690.492 1085.03 698.263C1128.2 839.045 1106.24 1007.87 1031.61 1108.82C999.338 1152.46 960.852 1178.13 919.372 1183.96C919.388 1184.4 919.505 1184.81 919.505 1185.26C919.505 1203.6 904.591 1218.51 886.254 1218.51H819.755C801.416 1218.51 786.505 1203.6 786.505 1185.26H653.504C653.504 1203.6 638.59 1218.51 620.253 1218.51H553.754C535.415 1218.51 520.504 1203.6 520.504 1185.26C520.504 1184.78 520.636 1184.34 520.636 1183.86C479.107 1177.89 440.554 1152.14 408.268 1108.4C333.671 1007.41 311.76 838.745 354.985 698.247C357.376 690.472 365.001 685.668 372.945 686.652C384.03 578.222 355.732 444.075 355.43 443.321C354.567 441.709 321 373.014 321 237.637C321 231.337 324.557 225.586 330.193 222.759ZM979.349 350.688C974.992 353.963 969.323 354.877 964.137 353.164C963.132 352.831 864.796 320.763 719.999 320.763C575.196 320.763 476.841 352.831 475.861 353.164C470.675 354.877 465.006 353.963 460.649 350.688L355.015 271.47C359.803 375.825 385.471 429.159 385.771 429.757C387.689 434.429 419.569 580.946 405.006 699.101C422.874 708.902 445.515 726.022 464.575 755.288C506.821 820.141 514.318 915.67 486.854 1039.24C484.858 1048.2 475.965 1053.84 467.021 1051.86C458.059 1049.87 452.406 1040.99 454.401 1032.03C479.489 919.129 473.372 829.719 436.714 773.444C418.21 745.048 396.147 731.119 382.017 724.617C348.186 852.081 369.149 999.495 435.001 1088.67C454.918 1115.62 487.271 1147.06 530.196 1151.2C541.849 1131.86 562.831 1118.76 587.003 1118.76C611.508 1118.76 632.705 1132.23 644.242 1152.01H795.763C807.283 1132.23 828.497 1118.76 853.002 1118.76C877.191 1118.76 898.189 1131.88 909.826 1151.23C952.685 1147.29 984.987 1115.93 1004.87 1089.05C1070.75 999.927 1091.77 852.348 1057.97 724.617C1043.67 731.201 1021.29 745.364 1002.67 774.375C966.549 830.683 960.598 919.794 985.469 1032.05C987.446 1041.01 981.794 1049.88 972.816 1051.88C963.905 1053.86 954.977 1048.2 952.999 1039.23C925.617 915.654 933.164 820.128 975.425 755.273C994.497 726.023 1017.13 708.909 1034.99 699.108C1020.43 580.953 1052.3 434.456 1053.68 430.953C1053.69 430.931 1053.71 430.899 1053.72 430.857C1055.15 427.821 1080.26 374.416 1084.98 271.47L979.349 350.688Z" fill="#F78001"/>
<path fill-rule="evenodd" clip-rule="evenodd" d="M964.137 353.164C969.323 354.877 974.992 353.963 979.349 350.688L1084.98 271.47C1080.26 374.416 1055.15 427.821 1053.72 430.857L1053.68 430.953C1052.3 434.456 1020.43 580.953 1034.99 699.108C1017.13 708.909 994.497 726.023 975.425 755.273C933.164 820.128 925.617 915.654 952.999 1039.23C954.977 1048.2 963.905 1053.86 972.816 1051.88C981.794 1049.88 987.446 1041.01 985.469 1032.05C960.598 919.794 966.549 830.683 1002.67 774.375C1021.29 745.364 1043.67 731.201 1057.97 724.617C1091.77 852.348 1070.75 999.927 1004.87 1089.05C984.987 1115.93 952.685 1147.29 909.826 1151.23C898.189 1131.88 877.191 1118.76 853.002 1118.76C828.497 1118.76 807.283 1132.23 795.763 1152.01H644.242C632.705 1132.23 611.508 1118.76 587.003 1118.76C562.831 1118.76 541.849 1131.86 530.196 1151.2C487.271 1147.06 454.918 1115.62 435.001 1088.67C369.149 999.495 348.186 852.081 382.017 724.617C396.147 731.119 418.21 745.048 436.714 773.444C473.372 829.719 479.489 919.129 454.401 1032.03C452.406 1040.99 458.059 1049.87 467.021 1051.86C475.965 1053.84 484.858 1048.2 486.854 1039.24C514.318 915.67 506.821 820.141 464.575 755.288C445.515 726.022 422.874 708.902 405.006 699.101C419.569 580.946 387.689 434.429 385.771 429.757C385.471 429.159 359.803 375.825 355.015 271.47L460.649 350.688C465.006 353.963 470.675 354.877 475.861 353.164C476.841 352.831 575.196 320.763 719.999 320.763C864.796 320.763 963.132 352.831 964.137 353.164Z" fill="#F78001"/>
<path d="M586.999 919.262C610.84 919.262 627.663 904.366 633.848 895.572C639.068 888.141 637.289 878.016 629.942 872.68C622.56 867.326 612.236 868.99 606.783 876.255C606.483 876.654 599.32 886.013 586.999 886.013C574.879 886.013 567.746 876.97 567.232 876.288C561.911 868.924 551.654 867.178 544.19 872.415C536.676 877.702 534.864 888.075 540.15 895.573C546.333 904.366 563.158 919.262 586.999 919.262Z" fill="#B6601D"/>
<path d="M739.782 876.253C739.482 876.652 732.318 886.012 719.997 886.012C707.877 886.012 700.745 876.968 700.23 876.286C694.91 868.922 684.652 867.176 677.189 872.413C669.674 877.7 667.862 888.073 673.148 895.572C679.332 904.366 696.157 919.262 719.997 919.262C743.838 919.262 760.661 904.366 766.847 895.572C772.066 888.141 770.287 878.016 762.94 872.68C755.576 867.326 745.235 868.988 739.782 876.253Z" fill="#B6601D"/>
<path d="M371.041 634.278C369.743 643.372 376.061 651.8 385.138 653.098C394.199 654.327 402.645 648.077 403.958 639C421.015 519.583 387.731 434.531 385.771 429.758C385.471 429.159 359.803 375.826 355.014 271.471L460.65 350.688C465.006 353.963 470.675 354.877 475.862 353.164C476.842 352.831 575.196 320.763 719.999 320.763C864.802 320.763 963.139 352.833 964.137 353.164C969.323 354.877 974.992 353.963 979.349 350.688L1084.98 271.471C1080.2 375.826 1054.46 429.274 1053.68 430.954C1052.27 434.529 1018.98 519.581 1036.04 638.998C1037.22 647.278 1044.34 653.263 1052.48 653.263C1053.26 653.263 1054.05 653.213 1054.86 653.098C1063.94 651.8 1070.26 643.372 1068.96 634.278C1053.26 524.487 1084.07 444.57 1083.99 444.57C1085.42 441.71 1119 373.017 1119 237.64C1119 231.339 1115.44 225.586 1109.8 222.761C1104.15 219.934 1097.44 220.55 1092.4 224.341L966.165 319.02C938.734 310.989 847.58 287.515 719.999 287.515C592.419 287.515 501.265 310.989 473.833 319.018L347.599 224.339C342.546 220.548 335.812 219.934 330.194 222.759C324.557 225.586 321 231.337 321 237.638C321 373.015 354.566 441.71 355.429 443.321C355.745 444.104 386.85 523.589 371.041 634.278Z" fill="#874C1E"/>
<path d="M795.616 718.838C787.963 715.489 777.67 716.847 772.591 721.85L720 773.521L667.41 721.85C662.313 716.849 652.005 715.489 644.385 718.838C636.765 722.165 634.707 728.917 639.786 733.92L706.187 799.162C709.258 802.184 714.437 804 719.999 804C725.543 804 730.723 802.184 733.81 799.162L800.211 733.92C805.294 728.918 803.236 722.165 795.616 718.838Z" fill="#B6601D"/>
<path d="M833.348 978.697C838.567 971.266 836.788 961.141 829.442 955.805C822.06 950.451 811.736 952.131 806.283 959.38C805.983 959.78 798.819 969.139 786.498 969.139C774.378 969.139 767.246 960.095 766.732 959.413C761.411 952.049 751.138 950.303 743.69 955.54C736.175 960.81 734.364 971.185 739.649 978.699C745.833 987.493 762.658 1002.39 786.498 1002.39C810.339 1002.39 827.162 987.491 833.348 978.697Z" fill="#B6601D"/>
<path d="M985.998 570.138C985.998 505.965 933.795 453.764 869.624 453.764C805.453 453.764 753.25 505.967 753.25 570.138C753.25 634.309 805.453 686.512 869.624 686.512C933.795 686.512 985.998 634.311 985.998 570.138ZM869.624 653.263C823.79 653.263 786.498 615.974 786.498 570.138C786.498 524.304 823.788 487.012 869.624 487.012C915.458 487.012 952.75 524.302 952.75 570.138C952.748 615.974 915.458 653.263 869.624 653.263Z" fill="#F5BD8A"/>
<path fill-rule="evenodd" clip-rule="evenodd" d="M786.498 570.138C786.498 615.974 823.79 653.263 869.624 653.263C915.458 653.263 952.748 615.974 952.75 570.138C952.75 524.302 915.458 487.012 869.624 487.012C823.788 487.012 786.498 524.304 786.498 570.138Z" fill="white"/>
<path d="M684.998 570.138C684.998 505.965 632.795 453.764 568.624 453.764C504.453 453.764 452.25 505.967 452.25 570.138C452.25 634.309 504.453 686.512 568.624 686.512C632.795 686.512 684.998 634.311 684.998 570.138ZM568.624 653.263C522.79 653.263 485.498 615.974 485.498 570.138C485.498 524.304 522.788 487.012 568.624 487.012C614.458 487.012 651.75 524.302 651.75 570.138C651.748 615.974 614.458 653.263 568.624 653.263Z" fill="#F5BD8A"/>
<path fill-rule="evenodd" clip-rule="evenodd" d="M485.498 570.138C485.498 615.974 522.79 653.263 568.624 653.263C614.458 653.263 651.748 615.974 651.75 570.138C651.75 524.302 614.458 487.012 568.624 487.012C522.788 487.012 485.498 524.304 485.498 570.138Z" fill="white"/>
<path d="M570.375 536.889C552.038 536.889 537.124 551.801 537.124 570.14C537.124 588.479 552.036 603.39 570.375 603.39C588.711 603.39 603.625 588.479 603.625 570.14C603.625 551.801 588.711 536.889 570.375 536.889Z" fill="#874C1E"/>
<path d="M1065.86 686.845C1063.7 687.26 1012.75 698.034 975.425 755.273C933.164 820.128 925.616 915.654 952.999 1039.23C954.976 1048.2 963.905 1053.86 972.816 1051.88C981.794 1049.88 987.446 1041.01 985.468 1032.05C960.597 919.794 966.549 830.684 1002.68 774.376C1021.29 745.364 1043.67 731.201 1057.97 724.618C1091.77 852.348 1070.75 999.927 1004.87 1089.05C984.987 1115.94 952.685 1147.29 909.826 1151.23C898.189 1131.88 877.191 1118.76 853.002 1118.76C828.497 1118.76 807.282 1132.23 795.762 1152.01H644.242C632.705 1132.23 611.508 1118.76 587.003 1118.76C562.831 1118.76 541.848 1131.86 530.196 1151.2C487.27 1147.06 454.918 1115.62 435.001 1088.67C369.149 999.495 348.186 852.081 382.017 724.618C396.147 731.119 418.209 745.049 436.714 773.444C473.372 829.719 479.489 919.13 454.402 1032.03C452.407 1040.99 458.059 1049.87 467.02 1051.86C475.965 1053.84 484.859 1048.2 486.854 1039.24C514.318 915.67 506.821 820.142 464.575 755.289C427.286 698.032 376.297 687.26 374.136 686.843C365.774 685.197 357.494 690.085 354.985 698.248C311.76 838.745 333.671 1007.41 408.267 1108.4C440.554 1152.14 479.107 1177.89 520.636 1183.86C520.636 1184.35 520.504 1184.78 520.504 1185.26C520.504 1203.6 535.415 1218.51 553.754 1218.51H620.253C638.59 1218.51 653.504 1203.6 653.504 1185.26H786.504C786.504 1203.6 801.416 1218.51 819.755 1218.51H886.254C904.591 1218.51 919.505 1203.6 919.505 1185.26C919.505 1184.81 919.388 1184.4 919.372 1183.96C960.852 1178.13 999.338 1152.46 1031.61 1108.82C1106.24 1007.87 1128.2 839.045 1085.03 698.264C1082.51 690.105 1074.19 685.1 1065.86 686.845ZM553.748 1185.26C553.748 1166.93 568.66 1152.01 586.999 1152.01C605.336 1152.01 620.249 1166.92 620.265 1185.26H553.748ZM819.749 1185.26C819.749 1166.93 834.661 1152.01 853 1152.01C871.338 1152.01 886.25 1166.92 886.266 1185.26H819.749Z" fill="#874C1E"/>
<path d="M636.874 1002.39C660.714 1002.39 677.539 987.491 683.723 978.697C688.944 971.266 687.164 961.141 679.817 955.805C672.435 950.451 662.111 952.131 656.658 959.38C656.358 959.78 649.194 969.139 636.874 969.139C624.754 969.139 617.621 960.095 617.107 959.413C611.786 952.049 601.529 950.303 594.065 955.54C586.551 960.81 584.739 971.185 590.024 978.699C596.208 987.491 613.033 1002.39 636.874 1002.39Z" fill="#B6601D"/>
<path d="M869.624 536.889C851.287 536.889 836.373 551.801 836.373 570.14C836.373 588.479 851.285 603.39 869.624 603.39C887.963 603.39 902.875 588.479 902.875 570.14C902.875 551.801 887.961 536.889 869.624 536.889Z" fill="#874C1E"/>
<path d="M719.999 1085.51C743.84 1085.51 760.663 1070.62 766.849 1061.82C772.068 1054.39 770.289 1044.27 762.942 1038.93C755.578 1033.56 745.237 1035.24 739.784 1042.51C739.484 1042.91 732.32 1052.26 719.999 1052.26C707.879 1052.26 700.747 1043.22 700.232 1042.54C694.912 1035.17 684.654 1033.43 677.191 1038.67C669.676 1043.95 667.864 1054.31 673.15 1061.82C679.334 1070.62 696.159 1085.51 719.999 1085.51Z" fill="#B6601D"/>
<path d="M899.847 895.572C905.066 888.141 903.288 878.016 895.941 872.68C888.576 867.326 878.253 868.99 872.782 876.255C872.482 876.654 865.318 886.013 852.998 886.013C840.878 886.013 833.745 876.97 833.231 876.288C827.91 868.924 817.637 867.178 810.189 872.415C802.675 877.702 800.863 888.075 806.148 895.573C812.332 904.368 829.157 919.264 852.998 919.264C876.838 919.264 893.663 904.366 899.847 895.572Z" fill="#B6601D"/>
</svg>
