<svg xmlns="http://www.w3.org/2000/svg" width="32" height="32" viewBox="0 0 48 48" fill="none" stroke="#2D1E14" stroke-width="2" stroke-linecap="round" stroke-linejoin="round">
  <!-- Head + body -->
  <path d="M12 24 C12 14 17 8 24 8 C31 8 36 14 36 24 L36 36 C36 38 34 40 32 40 L16 40 C14 40 12 38 12 36 Z" fill="#FFF5E6"/>
  <!-- Ear tufts -->
  <path d="M14 13 L17 18"/>
  <path d="M34 13 L31 18"/>
  <!-- Left eye -->
  <circle cx="19" cy="22" r="4.5" fill="#FFF5E6"/>
  <!-- Right eye -->
  <circle cx="29" cy="22" r="4.5" fill="#FFF5E6"/>
  <!-- Left pupil -->
  <circle cx="20" cy="21.5" r="2" fill="#2D1E14" stroke="none"/>
  <!-- Right pupil -->
  <circle cx="30" cy="21.5" r="2" fill="#2D1E14" stroke="none"/>
  <!-- Beak -->
  <path d="M22 27 L24 30 L26 27" fill="#E8913A" stroke="none"/>
  <!-- Belly -->
  <path d="M18 34 Q24 37 30 34"/>
</svg>
