<svg width="256" height="256" viewBox="0 0 48 48" fill="none" xmlns="http://www.w3.org/2000/svg">
  <path d="M12 24 C12 14 17 8 24 8 C31 8 36 14 36 24 L36 36 C36 38 34 40 32 40 L16 40 C14 40 12 38 12 36 Z" stroke="#D4790A" stroke-width="1.5" stroke-linecap="round" stroke-linejoin="round" fill="none"/>
  <path d="M14 13 L17 18" stroke="#D4790A" stroke-width="1.5" stroke-linecap="round" stroke-linejoin="round"/>
  <path d="M34 13 L31 18" stroke="#D4790A" stroke-width="1.5" stroke-linecap="round" stroke-linejoin="round"/>
  <circle cx="19" cy="22" r="4.5" stroke="#D4790A" stroke-width="1.5"/>
  <circle cx="29" cy="22" r="4.5" stroke="#D4790A" stroke-width="1.5"/>
  <circle cx="20" cy="21.5" r="2" fill="#D4790A"/>
  <circle cx="30" cy="21.5" r="2" fill="#D4790A"/>
  <path d="M22 27 L24 30 L26 27" stroke="#D4790A" stroke-width="1.5" stroke-linecap="round" stroke-linejoin="round"/>
  <path d="M18 34 Q24 37 30 34" stroke="#D4790A" stroke-width="1.5" stroke-linecap="round" stroke-linejoin="round"/>
</svg>
